<svg width="12" height="12" viewBox="0 0 12 12" fill="none" xmlns="http://www.w3.org/2000/svg">
<path d="M6 6.87819L1.77242 11.1058C1.65705 11.2211 1.51202 11.2802 1.33734 11.2828C1.16267 11.2855 1.01498 11.2265 0.894254 11.1058C0.773518 10.985 0.71315 10.8387 0.71315 10.6667C0.71315 10.4947 0.773518 10.3483 0.894254 10.2276L5.12182 6L0.894254 1.77242C0.778865 1.65705 0.719837 1.51202 0.717171 1.33734C0.71449 1.16267 0.773518 1.01498 0.894254 0.894254C1.01498 0.773518 1.16134 0.71315 1.33334 0.71315C1.50534 0.71315 1.6517 0.773518 1.77242 0.894254L6 5.12182L10.2276 0.894254C10.343 0.778865 10.488 0.719837 10.6627 0.717171C10.8373 0.71449 10.985 0.773518 11.1058 0.894254C11.2265 1.01498 11.2869 1.16134 11.2869 1.33334C11.2869 1.50534 11.2265 1.6517 11.1058 1.77242L6.87819 6L11.1058 10.2276C11.2211 10.343 11.2802 10.488 11.2828 10.6627C11.2855 10.8373 11.2265 10.985 11.1058 11.1058C10.985 11.2265 10.8387 11.2869 10.6667 11.2869C10.4947 11.2869 10.3483 11.2265 10.2276 11.1058L6 6.87819Z" fill="black"/>
</svg>
