<svg width="18" height="18" viewBox="0 0 18 18" fill="none" xmlns="http://www.w3.org/2000/svg">
<path fill-rule="evenodd" clip-rule="evenodd" d="M5.99984 0.0410157H5.97234H5.97233C5.06221 0.0410111 4.34097 0.0410074 3.75962 0.0885056C3.16512 0.137077 2.6621 0.238417 2.20279 0.472448C1.45798 0.851947 0.852436 1.4575 0.472937 2.2023C0.238906 2.66162 0.137566 3.16464 0.0889939 3.75913C0.0414957 4.34048 0.0414993 5.06173 0.041504 5.97185V5.97185V5.99935V6.99935V7.02685V7.02685C0.0414993 7.93697 0.0414957 8.65822 0.0889939 9.23957C0.137566 9.83406 0.238906 10.3371 0.472937 10.7964C0.852436 11.5412 1.45798 12.1468 2.20279 12.5262C2.6621 12.7603 3.16513 12.8616 3.75962 12.9102C4.12703 12.9402 4.55032 12.9513 5.04186 12.9553C5.04302 13.4373 5.04802 13.8402 5.06943 14.1823C5.09795 14.638 5.15733 15.0273 5.29521 15.3937C5.69674 16.4605 6.53868 17.3024 7.60551 17.704C7.97185 17.8419 8.36118 17.9012 8.81689 17.9298C9.26312 17.9577 9.81292 17.9577 10.5066 17.9577H10.5068H10.5276H11.9998H12.0273C12.9374 17.9577 13.6587 17.9577 14.2401 17.9102C14.8345 17.8616 15.3376 17.7603 15.7969 17.5262C16.5417 17.1468 17.1472 16.5412 17.5267 15.7964C17.7608 15.3371 17.8621 14.8341 17.9107 14.2396C17.9582 13.6582 17.9582 12.9369 17.9582 12.0268V11.9993V10.5271V10.5063V10.5061C17.9582 9.81243 17.9582 9.26263 17.9302 8.8164C17.9017 8.36069 17.8423 7.97136 17.7045 7.60502C17.3029 6.5382 16.461 5.69625 15.3942 5.29472C15.0278 5.15684 14.6385 5.09747 14.1828 5.06894C13.8407 5.04753 13.4378 5.04253 12.9558 5.04137C12.9517 4.54984 12.9407 4.12654 12.9107 3.75913C12.8621 3.16464 12.7608 2.66162 12.5267 2.2023C12.1472 1.4575 11.5417 0.851947 10.7969 0.472448C10.3376 0.238417 9.83455 0.137077 9.24006 0.0885056C8.65871 0.0410074 7.93746 0.0410111 7.02734 0.0410157H7.02733H6.99983H5.99984ZM12.9582 6.29141V6.99935V7.02686C12.9582 7.93698 12.9582 8.65822 12.9107 9.23957C12.8621 9.83406 12.7608 10.3371 12.5267 10.7964C12.1472 11.5412 11.5417 12.1468 10.7969 12.5262C10.3376 12.7603 9.83455 12.8616 9.24006 12.9102C8.65871 12.9577 7.93747 12.9577 7.02735 12.9577H6.99984H6.2919C6.29309 13.4313 6.29788 13.7988 6.31699 14.1042C6.34188 14.5018 6.38932 14.752 6.46509 14.9534C6.73982 15.6833 7.31589 16.2594 8.04583 16.5341C8.24714 16.6099 8.49735 16.6573 8.89498 16.6822C9.2976 16.7074 9.80836 16.7077 10.5276 16.7077H11.9998C12.9436 16.7077 13.6138 16.7072 14.1383 16.6643C14.6555 16.6221 14.9757 16.5418 15.2294 16.4125C15.739 16.1528 16.1533 15.7385 16.413 15.2289C16.5423 14.9752 16.6226 14.655 16.6648 14.1378C16.7077 13.6133 16.7082 12.9431 16.7082 11.9993V10.5271C16.7082 9.80787 16.7079 9.29711 16.6827 8.89449C16.6578 8.49686 16.6103 8.24665 16.5346 8.04534C16.2599 7.3154 15.6838 6.73933 14.9538 6.4646C14.7525 6.38884 14.5023 6.34139 14.1047 6.3165C13.7993 6.29739 13.4317 6.29261 12.9582 6.29141ZM2.77028 1.58621C3.02401 1.45693 3.34422 1.37661 3.86141 1.33435C4.38589 1.2915 5.0561 1.29102 5.99984 1.29102H6.99983C7.94357 1.29102 8.61378 1.2915 9.13827 1.33435C9.65546 1.37661 9.97567 1.45693 10.2294 1.58621C10.739 1.84586 11.1533 2.26019 11.413 2.76979C11.5423 3.02352 11.6226 3.34373 11.6648 3.86092C11.7077 4.3854 11.7082 5.05562 11.7082 5.99935V6.99935C11.7082 7.94308 11.7077 8.61329 11.6648 9.13778C11.6226 9.65497 11.5423 9.97518 11.413 10.2289C11.1533 10.7385 10.739 11.1528 10.2294 11.4125C9.97567 11.5418 9.65546 11.6221 9.13827 11.6643C8.61378 11.7072 7.94357 11.7077 6.99984 11.7077H5.99984C5.05611 11.7077 4.38589 11.7072 3.86141 11.6643C3.34422 11.6221 3.02401 11.5418 2.77028 11.4125C2.26067 11.1528 1.84635 10.7385 1.58669 10.2289C1.45741 9.97518 1.3771 9.65497 1.33484 9.13778C1.29199 8.61329 1.2915 7.94308 1.2915 6.99935V5.99935C1.2915 5.05562 1.29199 4.3854 1.33484 3.86092C1.3771 3.34373 1.45741 3.02352 1.58669 2.76979C1.84635 2.26019 2.26067 1.84586 2.77028 1.58621Z" fill="currentColor"/>
</svg>
