<svg width="20" height="16" viewBox="0 0 20 16" fill="none" xmlns="http://www.w3.org/2000/svg">
<path d="M19.0501 4.95228C18.9091 4.82935 18.7347 4.75109 18.5492 4.72744C18.3636 4.7038 18.1752 4.73583 18.0079 4.81947L14.0852 6.77259L10.8102 1.33275C10.7261 1.19316 10.6072 1.07769 10.4653 0.997539C10.3233 0.917386 10.1631 0.875267 10.0001 0.875267C9.83708 0.875267 9.67683 0.917386 9.53489 0.997539C9.39295 1.07769 9.27412 1.19316 9.18993 1.33275L5.91493 6.77494L1.99384 4.82181C1.82692 4.73891 1.63923 4.70716 1.45433 4.73054C1.26943 4.75392 1.09555 4.83139 0.95452 4.95323C0.813488 5.07507 0.711582 5.23585 0.661592 5.41539C0.611601 5.59494 0.615753 5.78525 0.673526 5.96244L3.56415 14.8187C3.59321 14.9077 3.64189 14.989 3.70658 15.0566C3.77128 15.1243 3.85034 15.1765 3.93793 15.2095C4.02552 15.2425 4.1194 15.2554 4.21264 15.2472C4.30588 15.2391 4.39611 15.2101 4.47665 15.1624C4.49618 15.1507 6.49384 13.9999 10.0001 13.9999C13.5063 13.9999 15.504 15.1507 15.522 15.1617C15.6025 15.2098 15.6929 15.2392 15.7864 15.2476C15.8799 15.256 15.974 15.2433 16.0619 15.2104C16.1498 15.1774 16.2292 15.1251 16.294 15.0573C16.3589 14.9895 16.4077 14.9079 16.4368 14.8187L19.3274 5.96478C19.3869 5.78754 19.3922 5.59662 19.3428 5.41633C19.2935 5.23603 19.1915 5.0745 19.0501 4.95228ZM13.7376 11.2499C13.7121 11.3945 13.6365 11.5255 13.5241 11.6199C13.4116 11.7144 13.2696 11.7662 13.1227 11.7663C13.0861 11.7663 13.0495 11.7632 13.0134 11.757C11.017 11.4143 8.97689 11.4143 6.98056 11.757C6.89971 11.7712 6.81685 11.7694 6.7367 11.7517C6.65655 11.7339 6.58069 11.7005 6.51344 11.6534C6.37762 11.5584 6.28514 11.4132 6.25634 11.2499C6.22754 11.0867 6.26478 10.9186 6.35986 10.7828C6.45495 10.647 6.6001 10.5545 6.76337 10.5257C8.90342 10.158 11.0905 10.158 13.2306 10.5257C13.3117 10.5396 13.3893 10.5694 13.4589 10.6133C13.5285 10.6573 13.5887 10.7145 13.6361 10.7818C13.6835 10.8491 13.7171 10.9251 13.7351 11.0055C13.7531 11.0858 13.755 11.1689 13.7407 11.2499H13.7376Z" fill="#FF9200"/>
</svg>
