<svg width="18" height="18" viewBox="0 0 18 18" fill="none" xmlns="http://www.w3.org/2000/svg">
<path fill-rule="evenodd" clip-rule="evenodd" d="M8.8151 1.29167C9.38792 1.29167 9.75903 1.29287 10.0416 1.31038V3.00003V3.02539C10.0416 3.47052 10.0416 3.84206 10.0664 4.14558C10.0923 4.46215 10.1482 4.75937 10.2914 5.04042C10.5111 5.47162 10.8617 5.82221 11.2929 6.04191C11.5739 6.18512 11.8712 6.24104 12.1877 6.26691C12.4913 6.29171 12.8628 6.2917 13.3079 6.29169H13.3333H15.0212C15.0403 6.59393 15.0416 6.99037 15.0416 7.59476V8.375H2.95829V7.14848C2.95829 6.05928 2.95871 5.27718 3.00532 4.66176C3.05144 4.05286 3.14013 3.65816 3.29021 3.33636C3.64209 2.58188 4.2485 1.97547 5.00299 1.62359C5.32479 1.4735 5.71948 1.38481 6.32839 1.33869C6.94381 1.29208 7.72591 1.29167 8.8151 1.29167ZM1.70829 8.375H0.666626C0.321448 8.375 0.041626 8.65482 0.041626 9C0.041626 9.34518 0.321448 9.625 0.666626 9.625H2.33329H15.6666H17.3333C17.6785 9.625 17.9583 9.34518 17.9583 9C17.9583 8.65482 17.6785 8.375 17.3333 8.375H16.2916V7.59476L16.2916 7.51223V7.51219C16.2917 6.57184 16.2918 5.99284 16.1592 5.44063C16.0419 4.95171 15.8482 4.48431 15.5855 4.05558C15.2888 3.57136 14.8793 3.16199 14.2143 2.49712L14.1559 2.43877L13.8404 2.1232L13.7863 2.06916C13.1707 1.45342 12.7918 1.07438 12.3485 0.792003C11.8772 0.491745 11.3569 0.276257 10.8113 0.155281C10.2982 0.0415112 9.76222 0.0415686 8.89151 0.0416617L8.8151 0.0416672H8.78926C7.73147 0.0416638 6.90213 0.0416611 6.23399 0.0922638C5.5539 0.143771 4.99012 0.250324 4.47464 0.490736C3.45387 0.966806 2.63343 1.78725 2.15736 2.80802C1.91695 3.3235 1.8104 3.88728 1.75889 4.56736C1.70829 5.2355 1.70829 6.06484 1.70829 7.12264V7.14848V8.375ZM14.5197 4.70871C14.5858 4.81656 14.646 4.92772 14.7 5.04169H13.3333C12.8563 5.04169 12.5361 5.04121 12.2895 5.02106C12.0503 5.00151 11.9359 4.96661 11.8604 4.92816C11.6644 4.82829 11.505 4.66893 11.4052 4.47293C11.3667 4.39746 11.3318 4.28306 11.3123 4.04379C11.2921 3.79723 11.2916 3.47705 11.2916 3.00003V1.63327C11.4241 1.6961 11.5528 1.7672 11.6769 1.84626C11.9907 2.04613 12.2699 2.32045 12.9565 3.00709L13.2721 3.32265C14.0137 4.06432 14.3097 4.36597 14.5197 4.70871ZM2.33329 11.7083C2.67847 11.7083 2.95829 11.9882 2.95829 12.3333V12.75C2.95829 13.1488 2.95878 13.312 2.96921 13.4445C3.1059 15.1813 4.48533 16.5607 6.22208 16.6974C6.35464 16.7078 6.51782 16.7083 6.91662 16.7083H11.0833C11.4821 16.7083 11.6453 16.7078 11.7778 16.6974C13.5146 16.5607 14.894 15.1813 15.0307 13.4445C15.0411 13.312 15.0416 13.1488 15.0416 12.75V12.3333C15.0416 11.9882 15.3214 11.7083 15.6666 11.7083C16.0118 11.7083 16.2916 11.9882 16.2916 12.3333V12.75V12.7836V12.7837V12.7837C16.2916 13.1386 16.2917 13.3546 16.2769 13.5426C16.0919 15.8923 14.2256 17.7586 11.8759 17.9436C11.6879 17.9584 11.4719 17.9583 11.117 17.9583H11.0833H6.91662H6.88291C6.52805 17.9583 6.31199 17.9584 6.12401 17.9436C3.77429 17.7586 1.90799 15.8923 1.72306 13.5426C1.70827 13.3546 1.70828 13.1386 1.70829 12.7837L1.70829 12.75V12.3333C1.70829 11.9882 1.98811 11.7083 2.33329 11.7083Z" fill="black"/>
</svg>
