<svg width="18" height="15" viewBox="0 0 18 15" fill="none" xmlns="http://www.w3.org/2000/svg">
<path d="M13 13.5H17V15H11.5L13 13.5ZM3.89583 15L1.4375 12.5417C1.14583 12.25 0.996525 11.8993 0.989581 11.4896C0.982636 11.0799 1.13194 10.7222 1.4375 10.4167L10.4167 1.43752C10.7222 1.13196 11.0764 0.979187 11.4792 0.979187C11.8819 0.979187 12.238 1.13384 12.5473 1.44315L16.5625 5.45835C16.8542 5.75002 17.0035 6.10072 17.0104 6.51044C17.0174 6.92016 16.8681 7.2778 16.5625 7.58335L9.14583 15H3.89583ZM8.52083 13.5L15.5 6.52085L11.4792 2.50002L2.5 11.4792L4.52083 13.5H8.52083Z" fill="black"/>
</svg>
