<svg width="16" height="16" viewBox="0 0 16 16" fill="none" xmlns="http://www.w3.org/2000/svg">
<path fill-rule="evenodd" clip-rule="evenodd" d="M8.00004 1.83331C4.59429 1.83331 1.83337 4.59422 1.83337 7.99998C1.83337 11.4057 4.59429 14.1666 8.00004 14.1666C11.4058 14.1666 14.1667 11.4057 14.1667 7.99998C14.1667 4.59422 11.4058 1.83331 8.00004 1.83331ZM0.833374 7.99998C0.833374 4.04194 4.042 0.833313 8.00004 0.833313C11.9581 0.833313 15.1667 4.04194 15.1667 7.99998C15.1667 11.958 11.9581 15.1666 8.00004 15.1666C4.042 15.1666 0.833374 11.958 0.833374 7.99998ZM7.99998 6.83331C8.27612 6.83331 8.49998 7.05717 8.49998 7.33331V10.6666C8.49998 10.9428 8.27612 11.1666 7.99998 11.1666C7.72383 11.1666 7.49998 10.9428 7.49998 10.6666V7.33331C7.49998 7.05717 7.72383 6.83331 7.99998 6.83331ZM8.00004 6.00002C8.36823 6.00002 8.66671 5.70154 8.66671 5.33335C8.66671 4.96516 8.36823 4.66669 8.00004 4.66669C7.63185 4.66669 7.33337 4.96516 7.33337 5.33335C7.33337 5.70154 7.63185 6.00002 8.00004 6.00002Z" fill="black"/>
</svg>
