<svg width="16" height="14" viewBox="0 0 16 14" fill="none" xmlns="http://www.w3.org/2000/svg">
<path d="M1.5898 13.25C1.16883 13.25 0.81251 13.1042 0.520844 12.8125C0.229177 12.5208 0.0833435 12.1645 0.0833435 11.7435V2.25646C0.0833435 1.83549 0.229177 1.47917 0.520844 1.1875C0.81251 0.895833 1.16883 0.75 1.5898 0.75H14.4102C14.8312 0.75 15.1875 0.895833 15.4792 1.1875C15.7708 1.47917 15.9167 1.83549 15.9167 2.25646V11.7435C15.9167 12.1645 15.7708 12.5208 15.4792 12.8125C15.1875 13.1042 14.8312 13.25 14.4102 13.25H1.5898ZM8.00001 7.46479L1.33334 3.20187V11.7435C1.33334 11.8184 1.35737 11.8799 1.40543 11.9279C1.45348 11.976 1.51494 12 1.5898 12H14.4102C14.4851 12 14.5465 11.976 14.5946 11.9279C14.6426 11.8799 14.6667 11.8184 14.6667 11.7435V3.20187L8.00001 7.46479ZM8.00001 6.16667L14.5386 2H1.46147L8.00001 6.16667ZM1.33334 3.20187V2V11.7435C1.33334 11.8184 1.35737 11.8799 1.40543 11.9279C1.45348 11.976 1.51494 12 1.5898 12H1.33334V3.20187Z" fill="black"/>
</svg>
