<svg width="14" height="16" viewBox="0 0 14 16" fill="none" xmlns="http://www.w3.org/2000/svg">
<path d="M4.54813 12.5833C4.12715 12.5833 3.77083 12.4375 3.47917 12.1458C3.1875 11.8542 3.04167 11.4979 3.04167 11.0769V1.5898C3.04167 1.16883 3.1875 0.81251 3.47917 0.520844C3.77083 0.229177 4.12715 0.0833435 4.54813 0.0833435H11.5352C11.9562 0.0833435 12.3125 0.229177 12.6042 0.520844C12.8958 0.81251 13.0417 1.16883 13.0417 1.5898V11.0769C13.0417 11.4979 12.8958 11.8542 12.6042 12.1458C12.3125 12.4375 11.9562 12.5833 11.5352 12.5833H4.54813ZM4.54813 11.3333H11.5352C11.5994 11.3333 11.6581 11.3066 11.7115 11.2531C11.7649 11.1998 11.7917 11.1411 11.7917 11.0769V1.5898C11.7917 1.52564 11.7649 1.46688 11.7115 1.41355C11.6581 1.36008 11.5994 1.33334 11.5352 1.33334H4.54813C4.48396 1.33334 4.42521 1.36008 4.37188 1.41355C4.3184 1.46688 4.29167 1.52564 4.29167 1.5898V11.0769C4.29167 11.1411 4.3184 11.1998 4.37188 11.2531C4.42521 11.3066 4.48396 11.3333 4.54813 11.3333ZM1.63146 15.5C1.21049 15.5 0.854167 15.3542 0.5625 15.0625C0.270833 14.7708 0.125 14.4145 0.125 13.9936V3.25647H1.375V13.9936C1.375 14.0577 1.40174 14.1165 1.45521 14.1698C1.50854 14.2233 1.56729 14.25 1.63146 14.25H9.86854V15.5H1.63146Z" fill="currentColor"/>
</svg>
