<svg width="14" height="16" viewBox="0 0 14 16" fill="none" xmlns="http://www.w3.org/2000/svg">
<path d="M6.125 10.6698L10.5448 6.25L9.65375 5.35896L6.125 8.88792L4.35896 7.12188L3.46792 8.01292L6.125 10.6698ZM7 15.9006C5.19764 15.4091 3.70542 14.3482 2.52333 12.7179C1.34111 11.0876 0.75 9.265 0.75 7.25V2.45521L7 0.115417L13.25 2.45521V7.25C13.25 9.265 12.6589 11.0876 11.4767 12.7179C10.2946 14.3482 8.80236 15.4091 7 15.9006ZM7 14.5833C8.44444 14.125 9.63889 13.2083 10.5833 11.8333C11.5278 10.4583 12 8.93056 12 7.25V3.3125L7 1.44542L2 3.3125V7.25C2 8.93056 2.47222 10.4583 3.41667 11.8333C4.36111 13.2083 5.55556 14.125 7 14.5833Z" fill="black"/>
</svg>
