<svg width="6" height="10" viewBox="0 0 6 10" fill="none" xmlns="http://www.w3.org/2000/svg">
<path d="M3.57533 5.00197L0.181105 1.60772C0.0657158 1.49234 0.00668799 1.34731 0.00402133 1.17263C0.00134077 0.997967 0.0603686 0.850273 0.181105 0.729551C0.301827 0.608815 0.448188 0.548447 0.620188 0.548447C0.792188 0.548447 0.938549 0.608815 1.05927 0.729551L4.80446 4.47474C4.88246 4.55272 4.93748 4.63499 4.96952 4.72153C5.00158 4.80806 5.0176 4.90154 5.0176 5.00197C5.0176 5.1024 5.00158 5.19588 4.96952 5.2824C4.93748 5.36895 4.88246 5.45121 4.80446 5.5292L1.05927 9.27438C0.943896 9.38977 0.798868 9.4488 0.624187 9.45147C0.449521 9.45415 0.301827 9.39512 0.181105 9.27438C0.0603686 9.15366 0 9.0073 0 8.8353C0 8.6633 0.0603686 8.51694 0.181105 8.39622L3.57533 5.00197Z" fill="currentColor"/>
</svg>
