<svg width="16" height="18" viewBox="0 0 16 18" fill="none" xmlns="http://www.w3.org/2000/svg">
<path d="M13.0009 17.125C12.3646 17.125 11.8234 16.9022 11.3774 16.4566C10.9314 16.011 10.7083 15.4699 10.7083 14.8333C10.7083 14.7293 10.7166 14.6215 10.7332 14.5101C10.7497 14.3986 10.7746 14.2959 10.8077 14.2019L4.64421 10.5929C4.42412 10.8119 4.17359 10.9831 3.8926 11.1065C3.61162 11.2299 3.31408 11.2916 2.99998 11.2916C2.36341 11.2916 1.82233 11.0689 1.37673 10.6235C0.931131 10.1781 0.708332 9.63722 0.708332 9.00092C0.708332 8.36461 0.931131 7.82344 1.37673 7.3774C1.82233 6.93136 2.36341 6.70833 2.99998 6.70833C3.31408 6.70833 3.61162 6.77003 3.8926 6.89342C4.17359 7.01682 4.42412 7.18803 4.64421 7.40704L10.8077 3.79806C10.7746 3.70405 10.7497 3.60131 10.7332 3.48985C10.7166 3.37841 10.7083 3.27067 10.7083 3.16665C10.7083 2.53008 10.931 1.98899 11.3765 1.5434C11.8219 1.0978 12.3627 0.875 12.999 0.875C13.6353 0.875 14.1765 1.09771 14.6226 1.54313C15.0686 1.98854 15.2916 2.5294 15.2916 3.16571C15.2916 3.80201 15.0688 4.34319 14.6232 4.78923C14.1776 5.23527 13.6365 5.45829 13 5.45829C12.6859 5.45829 12.3883 5.3966 12.1074 5.27321C11.8264 5.14981 11.5758 4.9786 11.3558 4.75958L5.19227 8.36856C5.2254 8.46258 5.25024 8.56513 5.26679 8.67621C5.28335 8.78728 5.29162 8.89465 5.29162 8.99831C5.29162 9.10199 5.28335 9.20992 5.26679 9.3221C5.25024 9.43429 5.2254 9.53738 5.19227 9.6314L11.3558 13.2404C11.5758 13.0214 11.8264 12.8502 12.1074 12.7268C12.3883 12.6034 12.6859 12.5417 13 12.5417C13.6365 12.5417 14.1776 12.7644 14.6232 13.2098C15.0688 13.6552 15.2916 14.1961 15.2916 14.8324C15.2916 15.4687 15.0689 16.0099 14.6235 16.4559C14.1781 16.9019 13.6372 17.125 13.0009 17.125ZM13 4.20831C13.2895 4.20831 13.5355 4.10708 13.738 3.90462C13.9404 3.70215 14.0417 3.45615 14.0417 3.16663C14.0417 2.8771 13.9404 2.6311 13.738 2.42863C13.5355 2.22618 13.2895 2.12496 13 2.12496C12.7105 2.12496 12.4645 2.22619 12.262 2.42865C12.0595 2.63112 11.9583 2.87712 11.9583 3.16665C11.9583 3.45617 12.0595 3.70217 12.262 3.90465C12.4645 4.10711 12.7105 4.20831 13 4.20831ZM2.99998 10.0416C3.28951 10.0416 3.53551 9.94042 3.73798 9.73796C3.94044 9.53549 4.04167 9.28949 4.04167 8.99996C4.04167 8.71043 3.94044 8.46443 3.73798 8.26196C3.53551 8.05951 3.28951 7.95829 2.99998 7.95829C2.71045 7.95829 2.46445 8.05952 2.26198 8.26198C2.05952 8.46445 1.95829 8.71045 1.95829 8.99998C1.95829 9.28951 2.05952 9.53551 2.26198 9.73798C2.46445 9.94044 2.71045 10.0416 2.99998 10.0416ZM13 15.875C13.2895 15.875 13.5355 15.7737 13.738 15.5713C13.9404 15.3688 14.0417 15.1228 14.0417 14.8333C14.0417 14.5438 13.9404 14.2978 13.738 14.0953C13.5355 13.8928 13.2895 13.7916 13 13.7916C12.7105 13.7916 12.4645 13.8929 12.262 14.0953C12.0595 14.2978 11.9583 14.5438 11.9583 14.8333C11.9583 15.1228 12.0595 15.3688 12.262 15.5713C12.4645 15.7738 12.7105 15.875 13 15.875Z" fill="black" fill-opacity="0.5"/>
</svg>
