<svg width="17" height="16" viewBox="0 0 17 16" fill="none" xmlns="http://www.w3.org/2000/svg">
<path d="M9.30448 8.32374C10.4199 7.5417 11.297 6.68005 11.9359 5.7388C12.5748 4.79757 12.8942 3.8638 12.8942 2.93751C12.8942 2.42362 12.7986 2.02778 12.6074 1.74999C12.4161 1.47221 12.1608 1.33332 11.8414 1.33332C11.1084 1.33332 10.4813 1.88808 9.95992 2.99759C9.43856 4.10709 9.17787 5.4204 9.17787 6.93751C9.17787 7.20675 9.18802 7.45621 9.20831 7.68591C9.22862 7.91562 9.26067 8.12823 9.30448 8.32374ZM0.908707 15.0833V13.641H2.351V15.0833H0.908707ZM4.08979 15.0833V13.641H5.53208V15.0833H4.08979ZM7.27085 15.0833V13.641H8.71315V15.0833H7.27085ZM10.4519 15.0833V13.641H11.8942V15.0833H10.4519ZM13.633 15.0833V13.641H15.0753V15.0833H13.633ZM0.953562 11.8702L0.083374 11L1.41671 9.66666L0.083374 8.33332L0.953562 7.46316L2.2869 8.79649L3.62023 7.46316L4.49039 8.33332L3.15706 9.66666L4.49039 11L3.62023 11.8702L2.2869 10.5368L0.953562 11.8702ZM10.6106 11.3333C10.1939 11.3333 9.81865 11.2441 9.48477 11.0657C9.15091 10.8873 8.86967 10.6095 8.64104 10.2324C8.3045 10.4268 7.95487 10.6031 7.59215 10.7612C7.22944 10.9193 6.85631 11.0748 6.47277 11.2276L6.03367 10.0577C6.41187 9.91348 6.77806 9.75883 7.13223 9.59376C7.4864 9.42869 7.82747 9.25321 8.15546 9.06732C8.07533 8.76177 8.01524 8.42443 7.97517 8.0553C7.93511 7.68618 7.91508 7.28794 7.91508 6.86059C7.91508 4.8873 8.28554 3.26444 9.02646 1.99201C9.76737 0.719566 10.7057 0.0833435 11.8414 0.0833435C12.5208 0.0833435 13.0724 0.342699 13.496 0.861407C13.9196 1.3801 14.1314 2.08923 14.1314 2.9888C14.1314 4.15653 13.7409 5.31437 12.9599 6.46234C12.1789 7.61032 11.1068 8.63889 9.74356 9.54807C9.86216 9.73078 9.99758 9.86781 10.1498 9.95916C10.3021 10.0505 10.4685 10.0962 10.649 10.0962C11.0529 10.0962 11.4997 9.87502 11.9896 9.43272C12.4794 8.99041 12.9215 8.40228 13.3157 7.6683L14.4359 8.19232C14.3493 8.52993 14.297 8.86541 14.2788 9.19874C14.2607 9.53207 14.3103 9.82107 14.4279 10.0657C14.5881 9.98559 14.7567 9.87422 14.9335 9.7316C15.1103 9.58897 15.3066 9.38464 15.5224 9.11862L16.5064 9.89103C16.1453 10.3376 15.77 10.6896 15.3806 10.9471C14.9912 11.2046 14.6271 11.3333 14.2885 11.3333C14.0182 11.3333 13.7805 11.2198 13.5753 10.9928C13.3702 10.7657 13.2126 10.4556 13.1026 10.0625C12.7404 10.4631 12.3392 10.7751 11.899 10.9984C11.4589 11.2217 11.0294 11.3333 10.6106 11.3333Z" fill="black"/>
</svg>
