<svg width="14" height="14" viewBox="0 0 14 14" fill="none" xmlns="http://www.w3.org/2000/svg">
<path d="M4.64047 9.8705C4.54116 10.3008 5.00774 10.6392 5.38591 10.4111L6.74007 9.59428C6.8998 9.49794 7.09987 9.49852 7.25904 9.59579L8.61163 10.4224C8.98935 10.6532 9.45861 10.3155 9.35972 9.88404L9.00469 8.3348C8.96336 8.15443 9.02502 7.96598 9.16498 7.84493L10.3579 6.81325C10.6918 6.52445 10.5149 5.9762 10.0751 5.93704L8.5065 5.79737C8.32292 5.78103 8.16322 5.66502 8.09092 5.49549L7.45824 4.01195C7.28571 3.60739 6.71253 3.60663 6.53892 4.01072L5.90948 5.4758C5.83692 5.6447 5.67753 5.76016 5.49443 5.77646L3.91656 5.91695C3.47804 5.956 3.30038 6.50178 3.6319 6.79148L4.83698 7.84457C4.97583 7.96591 5.03663 8.15382 4.99516 8.3335L4.64047 9.8705ZM3.49213 13.0234C3.11367 13.2518 2.64681 12.9128 2.7468 12.4822L3.60496 8.78711C3.64689 8.60653 3.58547 8.41756 3.44537 8.29615L0.577338 5.8107C0.243469 5.52137 0.421426 4.97291 0.861566 4.93472L4.64726 4.60622C4.83173 4.59021 4.99225 4.47357 5.06446 4.30307L6.5396 0.819708C6.71182 0.413012 7.2882 0.413012 7.46043 0.819708L8.93557 4.30307C9.00777 4.47357 9.16829 4.59021 9.35276 4.60622L13.1385 4.93472C13.5786 4.97291 13.7566 5.52137 13.4227 5.8107L10.5547 8.29615C10.4146 8.41756 10.3531 8.60653 10.3951 8.78711L11.2532 12.4822C11.3532 12.9128 10.8863 13.2518 10.5079 13.0234L7.2583 11.0629C7.09945 10.9671 6.90058 10.9671 6.74172 11.0629L3.49213 13.0234Z" fill="black"/>
</svg>
