<svg width="14" height="18" viewBox="0 0 14 18" fill="none" xmlns="http://www.w3.org/2000/svg">
<path d="M9.4375 9.90625C9.57292 9.90625 9.6849 9.95312 9.77344 10.0469C9.86719 10.1354 9.91406 10.2474 9.91406 10.3828C9.91406 10.5182 9.86719 10.6328 9.77344 10.7266C9.6849 10.8203 9.57292 10.8672 9.4375 10.8672H3.50781C3.36719 10.8672 3.25 10.8203 3.15625 10.7266C3.0625 10.6328 3.01562 10.5182 3.01562 10.3828C3.01562 10.2474 3.0625 10.1354 3.15625 10.0469C3.25 9.95312 3.36719 9.90625 3.50781 9.90625H9.4375ZM9.4375 12.6328C9.57292 12.6328 9.6849 12.6797 9.77344 12.7734C9.86719 12.8672 9.91406 12.9844 9.91406 13.125C9.91406 13.2552 9.86719 13.3672 9.77344 13.4609C9.6849 13.5495 9.57292 13.5938 9.4375 13.5938H3.50781C3.36719 13.5938 3.25 13.5495 3.15625 13.4609C3.0625 13.3672 3.01562 13.2552 3.01562 13.125C3.01562 12.9844 3.0625 12.8672 3.15625 12.7734C3.25 12.6797 3.36719 12.6328 3.50781 12.6328H9.4375ZM2.41406 17.2344C1.60677 17.2344 1 17.0312 0.59375 16.625C0.192708 16.2188 -0.0078125 15.6068 -0.0078125 14.7891V2.9375C-0.0078125 2.125 0.192708 1.51302 0.59375 1.10156C1 0.690104 1.60677 0.484375 2.41406 0.484375H6.125C6.41667 0.484375 6.67188 0.505208 6.89062 0.546875C7.11458 0.583333 7.32031 0.65625 7.50781 0.765625C7.69531 0.869792 7.88802 1.02344 8.08594 1.22656L12.3906 5.60938C12.599 5.82292 12.7552 6.02604 12.8594 6.21875C12.9688 6.40625 13.0417 6.61458 13.0781 6.84375C13.1146 7.07292 13.1328 7.35677 13.1328 7.69531V14.7891C13.1328 15.6016 12.9297 16.2109 12.5234 16.6172C12.1224 17.0286 11.5182 17.2344 10.7109 17.2344H2.41406ZM2.46875 15.9766H10.6484C11.0547 15.9766 11.3594 15.8724 11.5625 15.6641C11.7708 15.4557 11.875 15.1562 11.875 14.7656V7.75H7.42188C6.93229 7.75 6.5651 7.6276 6.32031 7.38281C6.07552 7.13802 5.95312 6.77083 5.95312 6.28125V1.74219H2.47656C2.07031 1.74219 1.76302 1.84896 1.55469 2.0625C1.35156 2.27604 1.25 2.57552 1.25 2.96094V14.7656C1.25 15.1562 1.35156 15.4557 1.55469 15.6641C1.76302 15.8724 2.06771 15.9766 2.46875 15.9766ZM7.5625 6.57031H11.6328L7.13281 1.98438V6.13281C7.13281 6.28906 7.16406 6.40104 7.22656 6.46875C7.29427 6.53646 7.40625 6.57031 7.5625 6.57031Z" fill="currentColor"/>
</svg>
