<svg width="18" height="18" viewBox="0 0 18 18" fill="none" xmlns="http://www.w3.org/2000/svg">
<path fill-rule="evenodd" clip-rule="evenodd" d="M15.6666 1.29166C15.0913 1.29166 14.625 1.75803 14.625 2.33332C14.625 2.90862 15.0913 3.37499 15.6666 3.37499C16.2419 3.37499 16.7083 2.90862 16.7083 2.33332C16.7083 1.75803 16.2419 1.29166 15.6666 1.29166ZM8.99996 2.95832H13.4612C13.6771 3.72152 14.2784 4.32287 15.0416 4.53873V8.99999V13.4613C14.2784 13.6771 13.6771 14.2785 13.4612 15.0417H8.99996H4.5387C4.32284 14.2785 3.72149 13.6771 2.95829 13.4613V8.99999V4.53873C3.72149 4.32287 4.32284 3.72152 4.5387 2.95832H8.99996ZM4.5387 1.70832H8.99996H13.4612C13.7333 0.746446 14.6176 0.0416565 15.6666 0.0416565C16.9323 0.0416565 17.9583 1.06767 17.9583 2.33332C17.9583 3.3823 17.2535 4.26667 16.2916 4.53873V8.99999V13.4613C17.2535 13.7333 17.9583 14.6177 17.9583 15.6667C17.9583 16.9323 16.9323 17.9583 15.6666 17.9583C14.6176 17.9583 13.7333 17.2535 13.4612 16.2917H8.99996H4.5387C4.26664 17.2535 3.38227 17.9583 2.33329 17.9583C1.06764 17.9583 0.041626 16.9323 0.041626 15.6667C0.041626 14.6177 0.746416 13.7333 1.70829 13.4613V8.99999V4.53873C0.746416 4.26667 0.041626 3.3823 0.041626 2.33332C0.041626 1.06767 1.06764 0.0416565 2.33329 0.0416565C3.38227 0.0416565 4.26664 0.746446 4.5387 1.70832ZM2.33329 3.37499C1.758 3.37499 1.29163 2.90862 1.29163 2.33332C1.29163 1.75803 1.758 1.29166 2.33329 1.29166C2.90859 1.29166 3.37496 1.75803 3.37496 2.33332C3.37496 2.90862 2.90859 3.37499 2.33329 3.37499ZM6.49996 5.87499C6.15478 5.87499 5.87496 6.15481 5.87496 6.49999C5.87496 6.84517 6.15478 7.12499 6.49996 7.12499H8.37496V11.5C8.37496 11.8452 8.65478 12.125 8.99996 12.125C9.34514 12.125 9.62496 11.8452 9.62496 11.5V7.12499H11.5C11.8451 7.12499 12.125 6.84517 12.125 6.49999C12.125 6.15481 11.8451 5.87499 11.5 5.87499H8.99996H6.49996ZM14.625 15.6667C14.625 15.0914 15.0913 14.625 15.6666 14.625C16.2419 14.625 16.7083 15.0914 16.7083 15.6667C16.7083 16.242 16.2419 16.7083 15.6666 16.7083C15.0913 16.7083 14.625 16.242 14.625 15.6667ZM2.33329 14.625C1.758 14.625 1.29163 15.0914 1.29163 15.6667C1.29163 16.242 1.758 16.7083 2.33329 16.7083C2.90859 16.7083 3.37496 16.242 3.37496 15.6667C3.37496 15.0914 2.90859 14.625 2.33329 14.625Z" fill="black"/>
</svg>
