<svg width="18" height="18" viewBox="0 0 18 18" fill="none" xmlns="http://www.w3.org/2000/svg">
<path fill-rule="evenodd" clip-rule="evenodd" d="M7.94144 0.0413152L7.85077 0.0412253C7.4236 0.0405874 7.04868 0.0400275 6.7146 0.171417C6.42249 0.286305 6.16389 0.472691 5.96253 0.713485C5.73224 0.988865 5.61421 1.34473 5.47973 1.75018L5.45114 1.83622L5.21611 2.54132H2.33325H0.666584C0.321406 2.54132 0.041584 2.82114 0.041584 3.16632C0.041584 3.51149 0.321406 3.79132 0.666584 3.79132H1.74393L2.24736 12.3495L2.24892 12.3761L2.24892 12.3761C2.29956 13.2371 2.33975 13.9204 2.41632 14.4706C2.49472 15.0341 2.61706 15.509 2.85957 15.9402C3.25381 16.6411 3.85216 17.2053 4.575 17.5577C5.01965 17.7744 5.50096 17.8687 6.06805 17.9139C6.62186 17.958 7.30629 17.958 8.16873 17.958H8.16878H8.19541H9.80442H9.83105H9.8311C10.6935 17.958 11.378 17.958 11.9318 17.9139C12.4989 17.8687 12.9802 17.7745 13.4248 17.5577C14.1477 17.2053 14.746 16.6411 15.1403 15.9402C15.3828 15.509 15.5051 15.0341 15.5835 14.4706C15.6601 13.9204 15.7003 13.2371 15.7509 12.3761L15.7525 12.3495L16.2559 3.79132H17.3333C17.6784 3.79132 17.9583 3.51149 17.9583 3.16632C17.9583 2.82114 17.6784 2.54132 17.3333 2.54132H15.6666H12.7837L12.5487 1.83622L12.5201 1.75017L12.5201 1.75016C12.3856 1.34472 12.2676 0.988862 12.0373 0.713485C11.8359 0.472691 11.5773 0.286305 11.2852 0.171417C10.9512 0.0400275 10.5762 0.0405874 10.1491 0.0412253L10.0584 0.0413152H7.94144ZM12.3187 3.79132C12.3283 3.79154 12.338 3.79154 12.3477 3.79132H15.0037L14.5046 12.2761C14.4521 13.1696 14.4143 13.8032 14.3454 14.2984C14.2776 14.786 14.1854 15.0881 14.0508 15.3274C13.781 15.8069 13.3716 16.193 12.8771 16.4341C12.6303 16.5544 12.3233 16.6287 11.8325 16.6678C11.3341 16.7075 10.6994 16.708 9.80442 16.708H8.19541C7.30039 16.708 6.66569 16.7075 6.16731 16.6678C5.67651 16.6287 5.36958 16.5544 5.12277 16.4341C4.6282 16.193 4.21879 15.8069 3.94906 15.3274C3.81444 15.0881 3.72224 14.786 3.65439 14.2984C3.58549 13.8032 3.54776 13.1696 3.4952 12.2761L2.9961 3.79132H5.65217C5.66186 3.79154 5.67153 3.79154 5.68118 3.79132H12.3187ZM11.4661 2.54132L11.3628 2.2315C11.1821 1.68915 11.136 1.58425 11.0784 1.51537C11.0113 1.43511 10.9251 1.37298 10.8277 1.33468C10.7442 1.30182 10.6301 1.29132 10.0584 1.29132H7.94144C7.36975 1.29132 7.25567 1.30182 7.17211 1.33468C7.07474 1.37298 6.98854 1.43511 6.92142 1.51537C6.86382 1.58425 6.81778 1.68915 6.637 2.2315L6.53373 2.54132H11.4661Z" fill="black"/>
</svg>
