<svg width="16" height="18" viewBox="0 0 16 18" fill="none" xmlns="http://www.w3.org/2000/svg">
<path fill-rule="evenodd" clip-rule="evenodd" d="M5.29171 3.99999C5.29171 2.50422 6.50427 1.29166 8.00004 1.29166C9.49581 1.29166 10.7084 2.50422 10.7084 3.99999C10.7084 5.49576 9.49581 6.70832 8.00004 6.70832C6.50427 6.70832 5.29171 5.49576 5.29171 3.99999ZM8.00004 0.0416565C5.81391 0.0416565 4.04171 1.81386 4.04171 3.99999C4.04171 6.18612 5.81391 7.95832 8.00004 7.95832C10.1862 7.95832 11.9584 6.18612 11.9584 3.99999C11.9584 1.81386 10.1862 0.0416565 8.00004 0.0416565ZM5.33337 10.0417C2.77906 10.0417 0.708374 12.1123 0.708374 14.6667C0.708374 16.4846 2.1821 17.9583 4.00004 17.9583H12C13.818 17.9583 15.2917 16.4846 15.2917 14.6667C15.2917 12.1123 13.221 10.0417 10.6667 10.0417H5.33337ZM1.95837 14.6667C1.95837 12.8027 3.46941 11.2917 5.33337 11.2917H10.6667C12.5307 11.2917 14.0417 12.8027 14.0417 14.6667C14.0417 15.7942 13.1276 16.7083 12 16.7083H4.00004C2.87246 16.7083 1.95837 15.7942 1.95837 14.6667Z" fill="black"/>
</svg>
